<?xml version="1.0" encoding="UTF-8" standalone="no"?>
<!DOCTYPE svg PUBLIC "-//W3C//DTD SVG 1.1//EN" "http://www.w3.org/Graphics/SVG/1.1/DTD/svg11.dtd">
<svg version="1.1" xmlns="http://www.w3.org/2000/svg" xmlns:xlink="http://www.w3.org/1999/xlink" preserveAspectRatio="xMidYMid meet" viewBox="0 0 640 640" width="640" height="640"><defs><path d="M640 320C640 496.61 496.61 640 320 640C143.39 640 0 496.61 0 320C0 143.39 143.39 0 320 0C496.61 0 640 143.39 640 320Z" id="bjQi55Rn0"></path><path d="M346.23 1.06L359.13 2.38L371.88 4.19L384.46 6.51L396.86 9.31L409.08 12.59L421.1 16.34L432.91 20.54L444.51 25.18L455.88 30.26L467.01 35.77L477.89 41.69L488.51 48.01L498.86 54.73L508.94 61.82L518.72 69.3L528.2 77.13L537.38 85.32L546.23 93.84L554.75 102.7L562.93 111.88L570.76 121.38L578.22 131.17L585.32 141.25L592.03 151.61L598.35 162.24L604.26 173.13L609.76 184.27L614.84 195.65L619.48 207.25L623.67 219.07L627.42 231.1L630.69 243.33L633.49 255.75L635.81 268.34L637.63 281.09L638.94 294L639.73 307.06L640 320.25L639.73 333.45L638.94 346.5L637.63 359.42L635.81 372.17L633.49 384.76L630.69 397.18L627.42 409.4L623.67 421.43L619.48 433.26L614.84 444.86L609.76 456.24L604.26 467.38L598.35 478.27L592.03 488.9L591.64 489.49L591.64 413.12L510.15 413.12L510.15 471.04L462.75 471.04L462.75 436.34L351.38 436.34L351.38 543.18L320 543.18L320 374.4L238.51 374.4L238.51 521.89L206.55 521.89L206.55 462.93L146.79 462.93L146.79 395.69L65.29 395.69L65.29 513.96L61.78 509.34L54.68 499.26L47.97 488.9L41.65 478.27L35.74 467.38L30.24 456.24L25.16 444.86L20.52 433.26L16.33 421.43L12.58 409.4L9.31 397.18L6.51 384.76L4.19 372.17L2.37 359.42L1.06 346.5L0.27 333.45L0 320.25L0.27 307.06L1.06 294L2.37 281.09L4.19 268.34L6.51 255.75L9.31 243.33L12.58 231.1L16.33 219.07L20.52 207.25L25.16 195.65L30.24 184.27L35.74 173.13L41.65 162.24L47.97 151.61L54.68 141.25L61.78 131.17L69.24 121.38L77.07 111.88L85.25 102.7L93.77 93.84L102.62 85.32L111.8 77.13L121.28 69.3L131.06 61.82L141.14 54.73L151.49 48.01L162.11 41.69L172.99 35.77L184.12 30.26L195.49 25.18L207.09 20.54L218.9 16.34L230.92 12.59L243.14 9.31L255.54 6.51L268.12 4.19L280.87 2.38L293.77 1.06L306.82 0.27L320 0L333.18 0.27L346.23 1.06Z" id="a5jFYDFkgn"></path><path d="M122.4 88.17L216.34 88.17L216.34 492.71L122.4 492.71L122.4 88.17Z" id="a18w1lc3lP"></path><path d="M415.09 88.17L509.03 88.17L509.03 492.71L415.09 492.71L415.09 88.17Z" id="eQgDNulyJ"></path></defs><g><g><g><use xlink:href="#bjQi55Rn0" opacity="1" fill="#3c493f" fill-opacity="1"></use></g><g><use xlink:href="#a5jFYDFkgn" opacity="1" fill="#145c9e" fill-opacity="1"></use></g><g><use xlink:href="#a18w1lc3lP" opacity="1" fill="#ffffd6" fill-opacity="1"></use></g><g><use xlink:href="#eQgDNulyJ" opacity="1" fill="#ffffd6" fill-opacity="1"></use></g></g></g></svg>
